<?xml version="1.0" encoding="utf-8"?>
<!-- Generator: Adobe Illustrator 27.5.0, SVG Export Plug-In . SVG Version: 6.00 Build 0)  -->
<svg version="1.1" id="Layer_1" xmlns="http://www.w3.org/2000/svg" xmlns:xlink="http://www.w3.org/1999/xlink" x="0px" y="0px"
	 viewBox="0 0 2000 2000" style="enable-background:new 0 0 2000 2000;" xml:space="preserve">
<style type="text/css">
	.st0{fill:#FFFFFF;}
	.st1{fill:url(#SVGID_1_);}
	.st2{fill:url(#SVGID_00000098198226634900932660000012501314912039701146_);}
	.st3{fill:url(#SVGID_00000067924551918552564200000016929601528570830241_);}
	.st4{fill:url(#SVGID_00000072269889757431556730000011890660274038685859_);}
	.st5{fill:url(#SVGID_00000041271087059688911350000008911602712420775576_);}
	.st6{fill:url(#SVGID_00000048482833207674054740000014205641385596028064_);}
	.st7{fill:url(#SVGID_00000060741782580376757280000001188402465791417231_);}
	.st8{fill:url(#SVGID_00000044892941159342381140000016050988078141574311_);}
	.st9{fill:url(#SVGID_00000039121314912475493430000017156358136253319079_);}
	.st10{fill:url(#SVGID_00000025429783712166967530000003467080819578640048_);}
	.st11{fill:url(#SVGID_00000092419158353536758810000011539706969275399088_);}
	.st12{fill:url(#SVGID_00000170974401483404696500000016822723873166857874_);}
	.st13{fill:url(#SVGID_00000086694024484309736870000001184615795341073072_);}
	.st14{fill:url(#SVGID_00000082342985731936020030000008340394978689982858_);}
	.st15{fill:url(#SVGID_00000169528960855494255600000009925641335896674720_);}
	.st16{fill:url(#SVGID_00000013907250092148845370000003977461474637935034_);}
	.st17{fill:url(#SVGID_00000020394892611196890520000005043852199382161829_);}
	.st18{fill:url(#SVGID_00000078030764882013566000000015496350528461633211_);}
	.st19{fill:url(#SVGID_00000028312999679484572570000005196767560118063265_);}
	.st20{fill:url(#SVGID_00000141425058244426056640000014901763549485724814_);}
	.st21{fill:url(#SVGID_00000049180210084706643960000015353584968364935862_);}
	.st22{fill:url(#SVGID_00000085217474453358569660000011082927864001863081_);}
	.st23{fill:url(#SVGID_00000027579299741772337680000011619584748279175312_);}
	.st24{fill:url(#SVGID_00000122717609512496200170000007201535166669185441_);}
	.st25{fill:url(#SVGID_00000160880123506921143250000017353134887795483314_);}
	.st26{fill:url(#SVGID_00000165935860505749347320000016352425490343558785_);}
	.st27{fill:url(#SVGID_00000111161198729420676050000000748245021311117963_);}
	.st28{fill:url(#SVGID_00000009559158393283700180000004558280541700019090_);}
	.st29{fill:url(#SVGID_00000055694428912657061430000015912044532233980604_);}
	.st30{fill:url(#SVGID_00000159436328343336140640000003177901169815735212_);}
	.st31{fill:url(#SVGID_00000162315204657066090310000015086488284429843361_);}
	.st32{fill:url(#SVGID_00000026883746467638494910000007311864578431708862_);}
	.st33{fill:url(#SVGID_00000181068201502104347880000000159505177914589357_);}
	.st34{fill:url(#SVGID_00000070825531248145806910000013301041803547264403_);}
</style>
<rect class="st0" width="2000" height="2000"/>
<g>
	<linearGradient id="SVGID_1_" gradientUnits="userSpaceOnUse" x1="609.2546" y1="970.2048" x2="1036.2252" y2="1430.8154">
		<stop  offset="0" style="stop-color:#65BC80"/>
		<stop  offset="1" style="stop-color:#52979F"/>
	</linearGradient>
	<path class="st1" d="M593.31,833.61l-53.6,131.9l-53.63-131.9h-34.89l88.52,218.61l88.5-218.61H593.31z"/>
	
		<linearGradient id="SVGID_00000172416748879759822970000013455405708674106781_" gradientUnits="userSpaceOnUse" x1="643.5836" y1="910.9128" x2="1095.1899" y2="1398.1003">
		<stop  offset="0" style="stop-color:#65BC80"/>
		<stop  offset="1" style="stop-color:#52979F"/>
	</linearGradient>
	<path style="fill:url(#SVGID_00000172416748879759822970000013455405708674106781_);" d="M654.41,950.75v34.87h84.53v-34.87H654.41
		z"/>
	
		<linearGradient id="SVGID_00000085952754325435427350000006529151403107012018_" gradientUnits="userSpaceOnUse" x1="739.6413" y1="810.1551" x2="1172.6589" y2="1277.2893">
		<stop  offset="0" style="stop-color:#65BC80"/>
		<stop  offset="1" style="stop-color:#52979F"/>
	</linearGradient>
	<path style="fill:url(#SVGID_00000085952754325435427350000006529151403107012018_);" d="M907.07,833.61H760.03v32.35h56.85v184.68
		h33.32l-0.01-184.68h56.88V833.61z"/>
	
		<linearGradient id="SVGID_00000122000219453216536230000008854838900376504467_" gradientUnits="userSpaceOnUse" x1="829.5247" y1="732.7625" x2="1265.1077" y2="1202.6642">
		<stop  offset="0" style="stop-color:#65BC80"/>
		<stop  offset="1" style="stop-color:#52979F"/>
	</linearGradient>
	<path style="fill:url(#SVGID_00000122000219453216536230000008854838900376504467_);" d="M989.99,1017.35v-54.66h90.18v-31.42
		h-90.18v-65.31h100.22v-32.35H956.7v216.72h135.72v-32.98H989.99z"/>
	
		<linearGradient id="SVGID_00000049905129736485318660000010670531781252689052_" gradientUnits="userSpaceOnUse" x1="1079.6298" y1="515.0295" x2="1515.7001" y2="985.4568">
		<stop  offset="0" style="stop-color:#65BC80"/>
		<stop  offset="1" style="stop-color:#52979F"/>
	</linearGradient>
	<path style="fill:url(#SVGID_00000049905129736485318660000010670531781252689052_);" d="M1520.3,833.61v116.18h-89.53V833.61
		h-33.63v217.03h33.63v-71.3h89.53v71.3h33.63V833.61H1520.3z"/>
	<g>
		
			<linearGradient id="SVGID_00000053512480426831904050000017992171002020210824_" gradientUnits="userSpaceOnUse" x1="566.2509" y1="956.1667" x2="1017.848" y2="1443.3441">
			<stop  offset="0" style="stop-color:#65BC80"/>
			<stop  offset="1" style="stop-color:#52979F"/>
		</linearGradient>
		<path style="fill:url(#SVGID_00000053512480426831904050000017992171002020210824_);" d="M748.98,1144.2
			c4.63-1.63,8.19-4.23,10.7-7.79c2.5-3.57,3.75-7.89,3.75-12.96c0-7.13-2.44-12.73-7.32-16.8c-4.88-4.07-11.58-6.1-20.09-6.1H710.4
			v65.71h9.38v-20h16.24c1,0,2.38-0.06,4.13-0.19l14.18,20.19h10.23L748.98,1144.2z M735.74,1138.28h-15.96v-29.57h15.96
			c5.95,0,10.48,1.27,13.61,3.8c3.13,2.54,4.7,6.19,4.7,10.94c0,4.76-1.57,8.42-4.7,10.98
			C746.22,1137,741.69,1138.28,735.74,1138.28z"/>
		
			<linearGradient id="SVGID_00000027572228056331214150000013020009231703287969_" gradientUnits="userSpaceOnUse" x1="614.6733" y1="911.256" x2="1066.296" y2="1398.4611">
			<stop  offset="0" style="stop-color:#65BC80"/>
			<stop  offset="1" style="stop-color:#52979F"/>
		</linearGradient>
		<path style="fill:url(#SVGID_00000027572228056331214150000013020009231703287969_);" d="M806.8,1158.09v-21.22h32.95v-7.97H806.8
			v-20.19h36.99v-8.16h-46.38v65.71h47.69v-8.17H806.8z"/>
		
			<linearGradient id="SVGID_00000115476124654002979900000004983907619631481224_" gradientUnits="userSpaceOnUse" x1="661.3306" y1="868.0206" x2="1112.9385" y2="1355.2097">
			<stop  offset="0" style="stop-color:#65BC80"/>
			<stop  offset="1" style="stop-color:#52979F"/>
		</linearGradient>
		<path style="fill:url(#SVGID_00000115476124654002979900000004983907619631481224_);" d="M926.21,1100.55v49l-39.43-49h-7.7v65.71
			h9.39v-49.01l39.43,49.01h7.69v-65.71H926.21z"/>
		
			<linearGradient id="SVGID_00000062877106057491423690000009049994236343179963_" gradientUnits="userSpaceOnUse" x1="709.6921" y1="823.1771" x2="1161.3147" y2="1310.3822">
			<stop  offset="0" style="stop-color:#65BC80"/>
			<stop  offset="1" style="stop-color:#52979F"/>
		</linearGradient>
		<path style="fill:url(#SVGID_00000062877106057491423690000009049994236343179963_);" d="M983.47,1158.09v-21.22h32.95v-7.97
			h-32.95v-20.19h36.98v-8.16h-46.37v65.71h47.69v-8.17H983.47z"/>
		
			<linearGradient id="SVGID_00000037658612998269565960000003769343187219774372_" gradientUnits="userSpaceOnUse" x1="769.6923" y1="767.5981" x2="1221.2861" y2="1254.7721">
			<stop  offset="0" style="stop-color:#65BC80"/>
			<stop  offset="1" style="stop-color:#52979F"/>
		</linearGradient>
		<path style="fill:url(#SVGID_00000037658612998269565960000003769343187219774372_);" d="M1138.73,1100.55l-18.12,53.69
			l-18.11-53.69h-8.64l-18.49,53.41l-17.74-53.41h-9.67l21.96,65.71h10.05l17.93-52.48l17.93,52.48h9.85l21.97-65.71H1138.73z"/>
		
			<linearGradient id="SVGID_00000150805565948948410360000017934253536406717579_" gradientUnits="userSpaceOnUse" x1="810.8975" y1="729.4146" x2="1262.4875" y2="1216.5845">
			<stop  offset="0" style="stop-color:#65BC80"/>
			<stop  offset="1" style="stop-color:#52979F"/>
		</linearGradient>
		<path style="fill:url(#SVGID_00000150805565948948410360000017934253536406717579_);" d="M1204.91,1100.55h-9.29l-29.76,65.71
			h9.67l7.23-16.43h34.92l7.23,16.43h9.85L1204.91,1100.55z M1186.04,1142.32l14.18-32.2l14.17,32.2H1186.04z"/>
		
			<linearGradient id="SVGID_00000007400079352600410580000016834340117730790530_" gradientUnits="userSpaceOnUse" x1="864.3872" y1="679.8" x2="1315.9961" y2="1166.9902">
			<stop  offset="0" style="stop-color:#65BC80"/>
			<stop  offset="1" style="stop-color:#52979F"/>
		</linearGradient>
		<path style="fill:url(#SVGID_00000007400079352600410580000016834340117730790530_);" d="M1316.52,1137.95
			c-2.19-2.78-5.19-4.7-9.01-5.77c2.69-1.31,4.84-3.22,6.43-5.72c1.6-2.51,2.4-5.48,2.4-8.92c0-5.32-2.05-9.48-6.15-12.49
			c-4.1-3-9.9-4.5-17.41-4.5h-29.48v65.71h31.35c8.2,0,14.44-1.54,18.73-4.6c4.29-3.07,6.43-7.45,6.43-13.15
			C1319.81,1144.26,1318.72,1140.74,1316.52,1137.95z M1272.69,1108.15h19.24c4.82,0,8.53,0.89,11.12,2.68
			c2.6,1.78,3.9,4.39,3.9,7.83c0,3.45-1.3,6.06-3.9,7.84c-2.59,1.78-6.3,2.68-11.12,2.68h-19.24V1108.15z M1306.29,1156.03
			c-2.69,1.75-6.69,2.62-12.01,2.62h-21.59v-21.87h21.59c10.7,0,16.05,3.66,16.05,10.98
			C1310.33,1151.52,1308.98,1154.27,1306.29,1156.03z"/>
		
			<linearGradient id="SVGID_00000101805032716578615610000008405060609461515181_" gradientUnits="userSpaceOnUse" x1="903.6024" y1="643.3974" x2="1355.2368" y2="1130.6151">
			<stop  offset="0" style="stop-color:#65BC80"/>
			<stop  offset="1" style="stop-color:#52979F"/>
		</linearGradient>
		<path style="fill:url(#SVGID_00000101805032716578615610000008405060609461515181_);" d="M1362.52,1158.09v-57.54h-9.39v65.71
			h44.97v-8.17H1362.52z"/>
		
			<linearGradient id="SVGID_00000139980114467477289660000010077164010935573391_" gradientUnits="userSpaceOnUse" x1="953.6913" y1="597.0731" x2="1405.2761" y2="1084.2373">
			<stop  offset="0" style="stop-color:#65BC80"/>
			<stop  offset="1" style="stop-color:#52979F"/>
		</linearGradient>
		<path style="fill:url(#SVGID_00000139980114467477289660000010077164010935573391_);" d="M1437.05,1158.09v-21.22H1470v-7.97
			h-32.95v-20.19h36.99v-8.16h-46.37v65.71h47.68v-8.17H1437.05z"/>
		
			<linearGradient id="SVGID_00000103230098223403958890000010579710063252906159_" gradientUnits="userSpaceOnUse" x1="995.3658" y1="558.3759" x2="1446.9789" y2="1045.5706">
			<stop  offset="0" style="stop-color:#65BC80"/>
			<stop  offset="1" style="stop-color:#52979F"/>
		</linearGradient>
		<path style="fill:url(#SVGID_00000103230098223403958890000010579710063252906159_);" d="M1550.69,1138.47
			c-2.16-2.44-4.75-4.25-7.75-5.44s-6.98-2.38-11.92-3.57c-3.82-0.88-6.84-1.71-9.06-2.49c-2.22-0.78-4.08-1.88-5.58-3.28
			c-1.51-1.41-2.26-3.24-2.26-5.5c0-3.06,1.33-5.57,3.99-7.5c2.66-1.94,6.65-2.91,11.97-2.91c3,0,6.07,0.45,9.2,1.36
			c3.13,0.9,6.07,2.23,8.82,3.98l3.1-7.51c-2.69-1.87-5.91-3.31-9.67-4.31c-3.75-1-7.57-1.51-11.45-1.51
			c-5.57,0-10.23,0.85-13.99,2.54c-3.75,1.69-6.55,3.94-8.4,6.76c-1.84,2.82-2.77,5.98-2.77,9.48c0,4.19,1.08,7.53,3.24,10
			c2.16,2.47,4.76,4.3,7.79,5.49c3.04,1.19,7.03,2.38,11.97,3.57c3.94,0.93,7,1.78,9.15,2.53c2.16,0.75,3.98,1.83,5.45,3.24
			c1.47,1.41,2.2,3.24,2.2,5.49c0,3.07-1.34,5.52-4.03,7.37c-2.69,1.85-6.76,2.77-12.2,2.77c-4.13,0-8.16-0.71-12.07-2.11
			c-3.91-1.41-7.12-3.24-9.62-5.5l-3.47,7.33c2.63,2.44,6.24,4.42,10.84,5.96c4.6,1.53,9.37,2.3,14.32,2.3
			c5.56,0,10.26-0.83,14.08-2.49c3.81-1.66,6.66-3.91,8.54-6.76c1.88-2.85,2.81-5.99,2.81-9.43
			C1553.92,1144.2,1552.84,1140.91,1550.69,1138.47z"/>
	</g>
	
		<linearGradient id="SVGID_00000029031850084003409120000014307689101678248078_" gradientUnits="userSpaceOnUse" x1="499.2101" y1="1074.6184" x2="864.152" y2="1468.3134">
		<stop  offset="0" style="stop-color:#65BC80"/>
		<stop  offset="1" style="stop-color:#52979F"/>
	</linearGradient>
	
		<rect x="446.07" y="1138.28" style="fill:url(#SVGID_00000029031850084003409120000014307689101678248078_);" width="231.7" height="7.98"/>
	
		<linearGradient id="SVGID_00000075122094992445822030000009883693007875212673_" gradientUnits="userSpaceOnUse" x1="1147.7571" y1="952.8441" x2="1347.7612" y2="932.9384">
		<stop  offset="0" style="stop-color:#65BC80"/>
		<stop  offset="1" style="stop-color:#52979F"/>
	</linearGradient>
	<path style="fill:url(#SVGID_00000075122094992445822030000009883693007875212673_);" d="M1342.29,1007.14
		c-9.96,13.51-22.42,24.26-37.43,32.21c-15.02,7.94-31.56,11.94-49.64,11.94c-14.92,0-28.93-2.89-42.04-8.66
		c-4.76-2.1-9.3-4.46-13.61-7.1c-7.6-4.59-14.48-10.04-20.69-16.3c-9.74-9.84-17.43-21.38-23.11-34.6
		c-3.58-8.36-6.04-17.09-7.35-26.21c-0.76-5.3-1.16-10.7-1.16-16.28c0-15.12,2.84-29.27,8.51-42.49
		c5.67-13.22,13.37-24.76,23.11-34.6c9.74-9.84,21.18-17.63,34.3-23.4c13.12-5.77,27.13-8.66,42.04-8.66
		c18.08,0,34.62,3.97,49.64,11.94c11.84,6.26,22.09,14.28,30.75,24.02l0.89,0.96c1.97,2.27,3.87,4.64,5.7,7.1
		c-15.36-0.39-26.68,2.1-36.2,7.05c-18.89,9.81-30.87,29.25-53.88,54.89c-22.71,25.3-42.09,26.07-52.75,23.6
		c-1.16-12.68,0.79-31.49,13.71-55.39c0,0-2.1,16.89,11.39,30.6c0,0,20.32-70.11,96.47-67.86c0,0-61.45-19.58-93.9,33.24
		l-5.82-24.88c0,0-43.28,40.05-31.15,95.51c4.15,18.98,18.89,33.19,36.08,41.11c9.03,4.19,18.72,6.26,29.07,6.26
		c12.72,0,24.39-3.03,35.04-9.1c10.63-6.04,19.31-14.15,26.09-24.29L1342.29,1007.14z"/>
</g>
</svg>
